<?xml version="1.0" encoding="UTF-8"?>
<svg version="1.1" xmlns="http://www.w3.org/2000/svg" width="512" height="512">
<path d="M0 0 C0.83857711 -0.00453111 1.67715422 -0.00906223 2.54114276 -0.01373065 C5.34371318 -0.02636417 8.146089 -0.02475494 10.94868469 -0.02310181 C12.96125538 -0.0290878 14.97382378 -0.03589351 16.98638916 -0.04345703 C22.44942042 -0.06111928 27.91238902 -0.06581258 33.37544608 -0.0670886 C36.79109392 -0.0685109 40.20672587 -0.07278203 43.62236977 -0.07808304 C55.54593033 -0.09658569 67.46944619 -0.10475356 79.39302063 -0.10317993 C90.4947279 -0.10197922 101.59624053 -0.12306727 112.69789857 -0.15466726 C122.2386738 -0.18085321 131.77938557 -0.19154622 141.32019645 -0.19026911 C147.01417973 -0.18976006 152.70799011 -0.19541151 158.40193748 -0.21662521 C163.761005 -0.23604596 169.1197354 -0.2361057 174.47881508 -0.22159195 C176.43991211 -0.21950736 178.40103044 -0.22418375 180.36209106 -0.23631287 C194.69779181 -0.31919809 205.57833243 0.45322146 216.36787415 10.90023804 C222.88817123 18.03254857 225.76659153 25.2929193 225.80609131 35.06471252 C225.81132799 35.71151153 225.81656467 36.35831054 225.82196003 37.02470952 C225.83685233 39.17232946 225.83766278 41.31970888 225.83833313 43.46737671 C225.84596199 45.01542558 225.85439073 46.56347069 225.86355591 48.11151123 C225.88543861 52.30392491 225.89429162 56.49626567 225.89938235 60.68873 C225.9030339 63.31290972 225.90927814 65.93707057 225.91638374 68.56124306 C225.94085849 77.73032082 225.95392546 86.89934218 225.95747375 96.06845093 C225.96110549 104.59191389 225.99097987 113.11501601 226.03287834 121.63836879 C226.06766619 128.97453029 226.08302368 136.31057271 226.08371979 143.64681607 C226.08450984 148.02018524 226.09312215 152.39318662 226.12171745 156.76646996 C226.14804376 160.88464 226.15002312 165.00214115 226.13406181 169.12035751 C226.1322587 170.62307898 226.13883409 172.12584022 226.15488052 173.6284771 C226.27771583 185.88869213 224.1523164 196.45554475 215.42256165 205.58383179 C208.74370717 211.5313241 201.80728846 214.52901692 192.79219055 214.49447632 C192.14757874 214.49476837 191.50296692 214.49506042 190.83882141 214.49536133 C188.72857242 214.49397869 186.61868572 214.47846864 184.50849915 214.46273804 C183.03734022 214.4590041 181.56617879 214.45615893 180.09501648 214.4541626 C176.23822567 214.44655609 172.38158744 214.42693354 168.52485657 214.40475464 C164.58322717 214.38423167 160.64157292 214.37514713 156.6999054 214.36508179 C148.97717987 214.34368457 141.25457971 214.30958502 133.53193665 214.26742554 C134.60109229 218.81374504 135.66809509 223.02456354 137.65693665 227.26742554 C138.18674133 228.41211304 138.18674133 228.41211304 138.72724915 229.57992554 C138.99279602 230.13680054 139.2583429 230.69367554 139.53193665 231.26742554 C140.09066467 231.27153442 140.6493927 231.27564331 141.22505188 231.27987671 C162.53442298 231.55479377 162.53442298 231.55479377 170.09443665 238.75570679 C175.01215136 244.16239882 176.00776393 249.41239774 175.83662415 256.48617554 C175.25778209 261.76996452 173.50713471 265.47959804 169.55537415 269.05648804 C160.73568135 275.82359778 151.76860931 275.41738787 141.0045929 275.41268921 C139.32718521 275.41772713 139.32718521 275.41772713 137.6158905 275.42286682 C133.94206107 275.432318 130.26827746 275.43431675 126.59443665 275.43539429 C124.02811159 275.43861006 121.46178671 275.44197438 118.89546204 275.44548035 C113.52590939 275.4514564 108.15637477 275.45336474 102.78681946 275.45272827 C96.5991448 275.45212719 90.41155723 275.46269246 84.22390461 275.47847193 C78.24542686 275.49316889 72.26699613 275.49671516 66.28849792 275.49611855 C63.75604394 275.49729606 61.22358926 275.50170495 58.69114685 275.50945091 C55.14711823 275.51927941 51.60331283 275.51636171 48.0592804 275.51034546 C46.50199722 275.51877472 46.50199722 275.51877472 44.91325378 275.52737427 C36.2221331 275.49000034 28.48766752 274.92906694 21.53193665 269.26742554 C17.26866589 264.88234705 14.67752955 259.89044885 14.43037415 253.74008179 C14.89851371 246.327872 17.49361616 241.98026066 22.96943665 237.01742554 C28.84852177 231.94313396 34.4010051 232.00565577 41.84443665 232.14242554 C42.7757843 232.15144897 43.70713196 232.16047241 44.66670227 232.16976929 C46.95538024 232.19324291 49.24352337 232.22607825 51.53193665 232.26742554 C51.82971008 231.3509021 52.12748352 230.43437866 52.4342804 229.49008179 C53.53193665 226.26742554 53.53193665 226.26742554 55.09443665 222.70492554 C56.31151523 219.79452024 56.98037513 217.34041113 57.53193665 214.26742554 C56.72284851 214.27408737 55.91376038 214.28074921 55.08015442 214.28761292 C47.43026948 214.34789128 39.78050079 214.39348453 32.13043976 214.42286205 C28.19808769 214.43847342 24.26593298 214.45962802 20.33369446 214.4937439 C16.5340991 214.52650016 12.73469278 214.54431257 8.93496704 214.55205727 C7.49018379 214.55757175 6.0454101 214.56833985 4.60070801 214.58461571 C-7.31374085 214.71342272 -17.10292653 213.05557007 -26.16337585 204.70492554 C-32.65993188 197.65338734 -35.58381001 189.36659913 -35.60850525 179.89337158 C-35.61421539 178.58130234 -35.61992554 177.26923309 -35.62580872 175.91740417 C-35.62705402 174.46490488 -35.62817913 173.01240548 -35.62919617 171.55990601 C-35.63382607 170.0287616 -35.63885097 168.49761835 -35.64424133 166.96647644 C-35.65735361 162.80708404 -35.66380839 158.64770778 -35.66825199 154.48829794 C-35.67118554 151.88710533 -35.67529096 149.28591711 -35.67975616 146.68472672 C-35.69343007 138.53899274 -35.70309638 130.3932688 -35.70695806 122.24752414 C-35.71143403 112.85845664 -35.72896095 103.46953507 -35.75795865 94.08051193 C-35.77961542 86.81493932 -35.78966452 79.54940763 -35.79099917 72.28380311 C-35.79204465 67.94855328 -35.79789705 63.61344065 -35.81581879 59.27822495 C-35.83236795 55.19552925 -35.83442199 51.11307285 -35.82567978 47.03035545 C-35.82491296 45.53809274 -35.82920486 44.04581681 -35.83913803 42.55358696 C-35.90308416 32.34195929 -35.45579254 22.77676796 -29.40556335 14.14242554 C-28.89896179 13.39734741 -28.39236023 12.65226929 -27.8704071 11.88461304 C-27.40763367 11.35094116 -26.94486023 10.81726929 -26.46806335 10.26742554 C-25.80806335 10.26742554 -25.14806335 10.26742554 -24.46806335 10.26742554 C-24.46806335 9.60742554 -24.46806335 8.94742554 -24.46806335 8.26742554 C-22.49150085 6.82992554 -22.49150085 6.82992554 -19.84306335 5.26742554 C-18.98454773 4.75180054 -18.1260321 4.23617554 -17.24150085 3.70492554 C-11.49323934 0.72554492 -6.4145104 -0.02558357 0 0 Z " fill="#BDE4FE" transform="translate(127.46806335449219,118.73257446289063)"/>
<path d="M0 0 C0.83857711 -0.00453111 1.67715422 -0.00906223 2.54114276 -0.01373065 C5.34371318 -0.02636417 8.146089 -0.02475494 10.94868469 -0.02310181 C12.96125538 -0.0290878 14.97382378 -0.03589351 16.98638916 -0.04345703 C22.44942042 -0.06111928 27.91238902 -0.06581258 33.37544608 -0.0670886 C36.79109392 -0.0685109 40.20672587 -0.07278203 43.62236977 -0.07808304 C55.54593033 -0.09658569 67.46944619 -0.10475356 79.39302063 -0.10317993 C90.4947279 -0.10197922 101.59624053 -0.12306727 112.69789857 -0.15466726 C122.2386738 -0.18085321 131.77938557 -0.19154622 141.32019645 -0.19026911 C147.01417973 -0.18976006 152.70799011 -0.19541151 158.40193748 -0.21662521 C163.761005 -0.23604596 169.1197354 -0.2361057 174.47881508 -0.22159195 C176.43991211 -0.21950736 178.40103044 -0.22418375 180.36209106 -0.23631287 C194.69779181 -0.31919809 205.57833243 0.45322146 216.36787415 10.90023804 C222.88817123 18.03254857 225.76659153 25.2929193 225.80609131 35.06471252 C225.81132799 35.71151153 225.81656467 36.35831054 225.82196003 37.02470952 C225.83685233 39.17232946 225.83766278 41.31970888 225.83833313 43.46737671 C225.84596199 45.01542558 225.85439073 46.56347069 225.86355591 48.11151123 C225.88543861 52.30392491 225.89429162 56.49626567 225.89938235 60.68873 C225.9030339 63.31290972 225.90927814 65.93707057 225.91638374 68.56124306 C225.94085849 77.73032082 225.95392546 86.89934218 225.95747375 96.06845093 C225.96110549 104.59191389 225.99097987 113.11501601 226.03287834 121.63836879 C226.06766619 128.97453029 226.08302368 136.31057271 226.08371979 143.64681607 C226.08450984 148.02018524 226.09312215 152.39318662 226.12171745 156.76646996 C226.14804376 160.88464 226.15002312 165.00214115 226.13406181 169.12035751 C226.1322587 170.62307898 226.13883409 172.12584022 226.15488052 173.6284771 C226.27771583 185.88869213 224.1523164 196.45554475 215.42256165 205.58383179 C208.74370717 211.5313241 201.80728846 214.52901692 192.79219055 214.49447632 C192.14757874 214.49476837 191.50296692 214.49506042 190.83882141 214.49536133 C188.72857242 214.49397869 186.61868572 214.47846864 184.50849915 214.46273804 C183.03734022 214.4590041 181.56617879 214.45615893 180.09501648 214.4541626 C176.23822567 214.44655609 172.38158744 214.42693354 168.52485657 214.40475464 C164.58322717 214.38423167 160.64157292 214.37514713 156.6999054 214.36508179 C148.97717987 214.34368457 141.25457971 214.30958502 133.53193665 214.26742554 C134.60109229 218.81374504 135.66809509 223.02456354 137.65693665 227.26742554 C138.18674133 228.41211304 138.18674133 228.41211304 138.72724915 229.57992554 C138.99279602 230.13680054 139.2583429 230.69367554 139.53193665 231.26742554 C140.09066467 231.27153442 140.6493927 231.27564331 141.22505188 231.27987671 C162.53442298 231.55479377 162.53442298 231.55479377 170.09443665 238.75570679 C175.01215136 244.16239882 176.00776393 249.41239774 175.83662415 256.48617554 C175.25778209 261.76996452 173.50713471 265.47959804 169.55537415 269.05648804 C160.73568135 275.82359778 151.76860931 275.41738787 141.0045929 275.41268921 C139.32718521 275.41772713 139.32718521 275.41772713 137.6158905 275.42286682 C133.94206107 275.432318 130.26827746 275.43431675 126.59443665 275.43539429 C124.02811159 275.43861006 121.46178671 275.44197438 118.89546204 275.44548035 C113.52590939 275.4514564 108.15637477 275.45336474 102.78681946 275.45272827 C96.5991448 275.45212719 90.41155723 275.46269246 84.22390461 275.47847193 C78.24542686 275.49316889 72.26699613 275.49671516 66.28849792 275.49611855 C63.75604394 275.49729606 61.22358926 275.50170495 58.69114685 275.50945091 C55.14711823 275.51927941 51.60331283 275.51636171 48.0592804 275.51034546 C46.50199722 275.51877472 46.50199722 275.51877472 44.91325378 275.52737427 C36.2221331 275.49000034 28.48766752 274.92906694 21.53193665 269.26742554 C17.26866589 264.88234705 14.67752955 259.89044885 14.43037415 253.74008179 C14.89851371 246.327872 17.49361616 241.98026066 22.96943665 237.01742554 C28.84852177 231.94313396 34.4010051 232.00565577 41.84443665 232.14242554 C42.7757843 232.15144897 43.70713196 232.16047241 44.66670227 232.16976929 C46.95538024 232.19324291 49.24352337 232.22607825 51.53193665 232.26742554 C51.82971008 231.3509021 52.12748352 230.43437866 52.4342804 229.49008179 C53.53193665 226.26742554 53.53193665 226.26742554 55.09443665 222.70492554 C56.31151523 219.79452024 56.98037513 217.34041113 57.53193665 214.26742554 C56.72284851 214.27408737 55.91376038 214.28074921 55.08015442 214.28761292 C47.43026948 214.34789128 39.78050079 214.39348453 32.13043976 214.42286205 C28.19808769 214.43847342 24.26593298 214.45962802 20.33369446 214.4937439 C16.5340991 214.52650016 12.73469278 214.54431257 8.93496704 214.55205727 C7.49018379 214.55757175 6.0454101 214.56833985 4.60070801 214.58461571 C-7.31374085 214.71342272 -17.10292653 213.05557007 -26.16337585 204.70492554 C-32.65993188 197.65338734 -35.58381001 189.36659913 -35.60850525 179.89337158 C-35.61421539 178.58130234 -35.61992554 177.26923309 -35.62580872 175.91740417 C-35.62705402 174.46490488 -35.62817913 173.01240548 -35.62919617 171.55990601 C-35.63382607 170.0287616 -35.63885097 168.49761835 -35.64424133 166.96647644 C-35.65735361 162.80708404 -35.66380839 158.64770778 -35.66825199 154.48829794 C-35.67118554 151.88710533 -35.67529096 149.28591711 -35.67975616 146.68472672 C-35.69343007 138.53899274 -35.70309638 130.3932688 -35.70695806 122.24752414 C-35.71143403 112.85845664 -35.72896095 103.46953507 -35.75795865 94.08051193 C-35.77961542 86.81493932 -35.78966452 79.54940763 -35.79099917 72.28380311 C-35.79204465 67.94855328 -35.79789705 63.61344065 -35.81581879 59.27822495 C-35.83236795 55.19552925 -35.83442199 51.11307285 -35.82567978 47.03035545 C-35.82491296 45.53809274 -35.82920486 44.04581681 -35.83913803 42.55358696 C-35.90308416 32.34195929 -35.45579254 22.77676796 -29.40556335 14.14242554 C-28.89896179 13.39734741 -28.39236023 12.65226929 -27.8704071 11.88461304 C-27.40763367 11.35094116 -26.94486023 10.81726929 -26.46806335 10.26742554 C-25.80806335 10.26742554 -25.14806335 10.26742554 -24.46806335 10.26742554 C-24.46806335 9.60742554 -24.46806335 8.94742554 -24.46806335 8.26742554 C-22.49150085 6.82992554 -22.49150085 6.82992554 -19.84306335 5.26742554 C-18.98454773 4.75180054 -18.1260321 4.23617554 -17.24150085 3.70492554 C-11.49323934 0.72554492 -6.4145104 -0.02558357 0 0 Z M-19.46806335 24.26742554 C-21.44039497 27.54705895 -21.71575965 29.98839108 -21.70857239 33.79763794 C-21.71132738 34.91988644 -21.71408237 36.04213493 -21.71692085 37.19839096 C-21.70972464 38.42999073 -21.70252842 39.6615905 -21.69511414 40.93051147 C-21.69535521 42.24931431 -21.69559628 43.56811714 -21.69584465 44.9268837 C-21.69629594 48.49238782 -21.68470914 52.05775755 -21.67062378 55.62322998 C-21.65922906 58.96963125 -21.65869727 62.31602671 -21.65727234 65.66244507 C-21.64678009 75.44745634 -21.61885776 85.23244264 -21.59306335 95.01742554 C-21.55181335 116.87992554 -21.51056335 138.74242554 -21.46806335 161.26742554 C55.09193665 161.26742554 131.65193665 161.26742554 210.53193665 161.26742554 C210.68662415 128.34992554 210.68662415 128.34992554 210.84443665 94.76742554 C210.88995667 87.84451538 210.93547668 80.92160522 210.9823761 73.78890991 C210.9991008 67.56998302 210.9991008 67.56998302 211.00915527 61.3510437 C211.01682203 58.58593655 211.03249904 55.82198053 211.05981445 53.05709839 C211.09425089 49.52432338 211.10436722 45.99224448 211.09729803 42.45931721 C211.0994689 40.55928972 211.12621512 38.65933824 211.15408039 36.75951385 C211.11170895 29.76994654 210.45127143 24.51703793 205.53193665 19.26742554 C199.81385161 14.97336545 194.47896156 14.11799213 187.51834106 14.11352539 C186.69246119 14.10914314 185.86658131 14.10476088 185.01567477 14.10024583 C182.23829688 14.08685289 179.46095073 14.08067785 176.68354797 14.07455444 C174.69610958 14.06665385 172.70867262 14.05838493 170.72123718 14.04977417 C164.1854947 14.02354861 157.6497458 14.00824578 151.1139679 13.99398804 C148.86460046 13.98862854 146.61523306 13.98325103 144.36586571 13.97785568 C135.00934943 13.95622599 125.65283489 13.93748916 116.29629993 13.92623329 C102.88473241 13.90999348 89.47345459 13.8768157 76.06199628 13.81983244 C66.63343863 13.78113708 57.20495847 13.76160105 47.7763235 13.75631273 C42.14436859 13.75265869 36.51272263 13.74063147 30.88085365 13.70820999 C25.58089647 13.67813683 20.28143528 13.67181504 14.98141098 13.68359375 C13.03839329 13.68381455 11.09535263 13.67550447 9.15241432 13.65793991 C6.49449818 13.63522379 3.83837695 13.64355403 1.18045044 13.65942383 C0.41593703 13.64554174 -0.34857639 13.63165965 -1.13625687 13.6173569 C-9.0772987 13.73376198 -15.08404386 17.6913963 -19.46806335 24.26742554 Z " fill="#0F3768" transform="translate(127.46806335449219,118.73257446289063)"/>
<path d="M0 0 C0.93585938 -0.0309375 1.87171875 -0.061875 2.8359375 -0.09375 C6.77804835 0.74546688 8.13609531 2.36597788 10.625 5.5 C11.78662544 8.04943275 12.74720254 10.424695 13.625 13.0625 C14.12377743 14.49307024 14.62510645 15.92275324 15.12890625 17.3515625 C15.37527832 18.05442383 15.62165039 18.75728516 15.87548828 19.48144531 C16.94889017 22.37228793 18.26509203 25.1414241 19.5625 27.9375 C21.74712113 33.12158486 22.2902686 37.0973388 20.625 42.5 C20.12637451 43.41168945 19.62774902 44.32337891 19.11401367 45.26269531 C16.6342508 51.04024921 17.14368755 57.35002563 17.11328125 63.52734375 C17.09641401 64.88499047 17.07826104 66.24262177 17.05888367 67.60023499 C17.01159877 71.15275247 16.98165118 74.70520741 16.95544434 78.25793457 C16.92552938 81.89148303 16.87903698 85.52481641 16.83398438 89.15820312 C16.74819671 96.27201188 16.68074311 103.38588717 16.625 110.5 C17.71425781 110.63148438 18.80351562 110.76296875 19.92578125 110.8984375 C25.66345317 111.8314908 28.54736298 114.01460844 31.9375 118.6875 C34.0242009 122.80807393 34.98177751 126.87774915 34.625 131.5 C33.22869925 135.5754971 31.00279309 138.93331037 28.625 142.5 C28.85388419 147.99322045 30.67982468 152.66828752 32.6875 157.75390625 C34.40327793 162.77970576 34.75349185 167.67416089 34.78613281 172.95751953 C34.79574036 174.21968292 34.8053479 175.48184631 34.81524658 176.78225708 C34.8200971 178.14910702 34.82437531 179.5159591 34.828125 180.8828125 C34.83236607 181.92776697 34.83236607 181.92776697 34.83669281 182.99383163 C34.85164134 186.68404259 34.86089687 190.37421492 34.86523438 194.06445312 C34.87069788 197.84327918 34.89469307 201.62174109 34.92320633 205.40045357 C34.94199438 208.33473686 34.94704691 211.26893546 34.94857025 214.20327377 C34.95156344 215.59450129 34.95947651 216.98572854 34.97275543 218.3768959 C35.08543509 231.09425248 34.10056395 243.34279774 25.25 253.125 C23.950625 254.300625 23.950625 254.300625 22.625 255.5 C21.2946875 256.799375 21.2946875 256.799375 19.9375 258.125 C13.06309691 263.68414739 4.10886058 264.20272942 -4.375 263.5 C-13.61715596 262.44518872 -21.05918009 256.81246054 -26.87109375 249.7734375 C-33.7601322 239.35935859 -33.53903557 227.45345807 -33.578125 215.45703125 C-33.58095238 214.78337713 -33.58377975 214.10972301 -33.58669281 213.41565514 C-33.60162286 209.84863274 -33.61089063 206.28165012 -33.61523438 202.71459961 C-33.62070192 199.06471232 -33.64471107 195.41520127 -33.67320633 191.7654314 C-33.69199962 188.9280853 -33.69704713 186.09082672 -33.69857025 183.25342369 C-33.70299815 181.26402307 -33.72156059 179.27466963 -33.74053955 177.28535461 C-33.71791592 167.95420651 -32.71379697 159.17820594 -28.625 150.6875 C-27.09170019 146.7775855 -27.2909919 144.52631579 -28.375 140.5 C-29.77088754 138.85405861 -29.77088754 138.85405861 -31.375 137.5 C-33.63176019 133.34281017 -34.07557842 129.13919612 -33.375 124.5 C-31.36262822 118.78444921 -28.46845581 114.12813464 -23 111.25 C-20.02372761 110.39963646 -17.45633454 110.44906885 -14.375 110.5 C-14.41327032 102.99706065 -14.47293749 95.4945395 -14.55890274 87.99199963 C-14.59818269 84.50710022 -14.63046519 81.0224461 -14.64599609 77.53735352 C-14.66422994 73.51799237 -14.71426461 69.4995442 -14.765625 65.48046875 C-14.76685364 64.24668991 -14.76808228 63.01291107 -14.76934814 61.741745 C-14.88504663 54.81581949 -15.74046397 49.25157277 -18.47717285 42.86335754 C-21.2441129 35.57991925 -18.88308685 28.90084587 -16.125 22 C-15.82464844 21.20980469 -15.52429688 20.41960937 -15.21484375 19.60546875 C-14.29865621 17.22338114 -13.34664116 14.85997813 -12.375 12.5 C-12.03791016 11.67757812 -11.70082031 10.85515625 -11.35351562 10.0078125 C-11.01513672 9.21117187 -10.67675781 8.41453125 -10.328125 7.59375 C-10.02551758 6.87896484 -9.72291016 6.16417969 -9.41113281 5.42773438 C-7.04382974 1.02334581 -4.94735193 0.05421756 0 0 Z " fill="#0E3668" transform="translate(396.375,126.5)"/>
<path d="M0 0 C76.89 0 153.78 0 233 0 C233 14.50684932 233 14.50684932 227.57421875 20.6015625 C222.01810062 25.51162038 216.87898719 26.29572767 209.69447327 26.26069641 C208.86138986 26.26452196 208.02830644 26.26834751 207.16997808 26.27228898 C204.38026288 26.28260244 201.59075413 26.27862997 198.80102539 26.2746582 C196.80019439 26.27900558 194.79936506 26.28418881 192.79853821 26.29014587 C187.36470168 26.303544 181.93093468 26.30411366 176.49708486 26.30158257 C171.96166976 26.30051347 167.42626876 26.30539465 162.89085668 26.310188 C152.19195689 26.32128588 141.49309221 26.32171892 130.79418945 26.31567383 C119.7543512 26.30963206 108.71464034 26.32194961 97.67482382 26.3432439 C88.19784166 26.36085201 78.72090007 26.36686252 69.24390215 26.36360615 C63.58307364 26.36179198 57.92233601 26.36444292 52.26152229 26.37832069 C46.93863877 26.39088161 41.61595406 26.38897131 36.29307365 26.37590981 C34.33955697 26.37354074 32.38602637 26.37629049 30.43252563 26.38453293 C27.76562237 26.39497406 25.09938945 26.38692095 22.43251038 26.3742218 C21.65964457 26.38159609 20.88677877 26.38897037 20.09049278 26.39656812 C14.47903029 26.34036155 10.37131626 25.13823817 6.171875 21.3515625 C5.70265625 20.78179687 5.2334375 20.21203125 4.75 19.625 C4.27046875 19.06039063 3.7909375 18.49578125 3.296875 17.9140625 C-0.94333414 11.65592251 0 8.05585662 0 0 Z " fill="#46A0E5" transform="translate(106,293)"/>
<path d="M0 0 C0.79273315 0.00404846 1.58546631 0.00809692 2.40222168 0.01226807 C3.62274231 0.00939789 3.62274231 0.00939789 4.86791992 0.00646973 C6.58948068 0.0051078 8.31105171 0.00880479 10.03259277 0.01715088 C12.67296338 0.02785048 15.31265357 0.01725607 17.95300293 0.00445557 C19.62357735 0.00577716 21.29415135 0.00833955 22.96472168 0.01226807 C23.75745483 0.0082196 24.55018799 0.00417114 25.36694336 0 C30.95355141 0.04797279 30.95355141 0.04797279 33.18347168 2.27789307 C33.68347168 4.46539307 33.68347168 4.46539307 33.18347168 7.27789307 C32.21858728 8.35216843 31.21298051 9.39038084 30.18347168 10.40289307 C27.51986431 13.35188695 26.64395227 15.35880185 26.43347168 19.34039307 C26.7426757 24.07980583 28.06333451 27.37465888 30.18273926 31.59893799 C33.91558181 39.72347251 34.04451834 47.26530903 33.94519043 56.07867432 C33.94669787 57.65136506 33.95014015 59.224055 33.95539856 60.79673767 C33.95969324 64.06533913 33.9431656 67.33294122 33.9107666 70.60137939 C33.87082215 74.76857635 33.88037666 78.93392013 33.90500164 83.10117817 C33.91924428 86.33828178 33.90905408 89.57495911 33.89148903 92.8120327 C33.88568653 94.34805468 33.8868708 95.88412115 33.89551353 97.42012978 C33.92771645 105.98994116 33.75615133 113.32118897 28.18347168 120.27789307 C23.51634431 124.82834226 18.84838149 126.57107332 12.37097168 126.71539307 C6.41953343 126.60558793 2.57476471 125.30854851 -1.81652832 121.27789307 C-6.69889526 115.3676594 -8.05665133 109.05471859 -8.10705566 101.50738525 C-8.11981537 100.2020282 -8.13257507 98.89667114 -8.14572144 97.55175781 C-8.14878009 96.14276276 -8.15100731 94.73376569 -8.15246582 93.32476807 C-8.15890457 91.85896682 -8.1656337 90.39316682 -8.17263794 88.92736816 C-8.18457646 85.86107407 -8.18832242 82.79489233 -8.18713379 79.72857666 C-8.18693104 75.82734903 -8.21420229 71.92685344 -8.24867821 68.0257988 C-8.27107835 64.99888904 -8.27496732 61.97215164 -8.27391434 58.94516754 C-8.27625181 57.50845067 -8.28496903 56.07172766 -8.30057907 54.63509369 C-8.39740461 44.80212301 -7.26816826 36.91440898 -2.71090698 28.15209961 C-0.68006137 23.89638075 -1.09927602 18.83244515 -1.81652832 14.27789307 C-3.17365758 12.09228374 -4.6296246 10.52112544 -6.47277832 8.73883057 C-7.81652832 7.27789307 -7.81652832 7.27789307 -8.31652832 4.46539307 C-7.21740157 -0.34328646 -4.33622227 0.0372356 0 0 Z " fill="#459CDF" transform="translate(383.8165283203125,249.72210693359375)"/>
<path d="M0 0 C1.18263428 -0.00540298 2.36526855 -0.01080597 3.58374023 -0.01637268 C6.81945048 -0.02672473 10.05449455 -0.01917158 13.29016113 -0.00266147 C16.68042392 0.01121365 20.07065655 0.00472616 23.4609375 0.00120544 C29.15373293 -0.00149475 34.8463173 0.01196229 40.5390625 0.03515625 C47.11534019 0.06176497 53.69126504 0.06351248 60.26757812 0.05176789 C66.60063174 0.04097867 72.93355804 0.04718609 79.26660156 0.06132317 C81.95868956 0.06707311 84.6506841 0.06700814 87.34277344 0.06225777 C91.10373272 0.05935054 94.86411374 0.07583048 98.625 0.09765625 C100.29743774 0.09090378 100.29743774 0.09090378 102.00366211 0.08401489 C103.02983643 0.09391953 104.05601074 0.10382416 105.11328125 0.11402893 C106.00184814 0.11645883 106.89041504 0.11888872 107.8059082 0.12139225 C110.88985291 0.5893088 112.78955419 1.69676247 115.3125 3.50170898 C116.75680855 6.39032608 116.68938506 8.298186 116.3125 11.50170898 C114.52526855 14.16049194 114.52526855 14.16049194 111.3125 16.50170898 C107.39144251 17.25490075 103.51579965 17.18453341 99.53320312 17.14868164 C98.34081528 17.15744324 97.14842743 17.16620483 95.91990662 17.17523193 C92.65723017 17.19344768 89.39557064 17.18920784 86.13290977 17.17333651 C82.71460245 17.16065502 79.29636182 17.17242382 75.87805176 17.18026733 C70.13814136 17.18935746 64.3985529 17.17739312 58.65869141 17.15356445 C52.02772551 17.12635388 45.39752833 17.13516853 38.76658106 17.16269648 C33.06786865 17.18540512 27.36938733 17.18857923 21.67064428 17.17550313 C18.26944222 17.16771805 14.86860118 17.16664042 11.46742249 17.18318558 C7.67501698 17.19586976 3.88409197 17.1765472 0.09179688 17.14868164 C-1.03251236 17.1588028 -2.15682159 17.16892395 -3.31520081 17.17935181 C-10.89525063 17.07605272 -10.89525063 17.07605272 -14.88464355 14.18392944 C-17.26767541 10.63854634 -17.44861447 8.68783859 -16.6875 4.50170898 C-12.21084819 -0.90288271 -6.45586247 -0.05597973 0 0 Z " fill="#459EE2" transform="translate(172.6875,363.498291015625)"/>
<path d="M0 0 C0.66 0 1.32 0 2 0 C4.58823132 4.92203072 4.31362123 9.80781118 4.34375 15.2265625 C4.3583728 16.21119476 4.37299561 17.19582703 4.38806152 18.21029663 C4.4502329 22.41415685 4.49000541 26.61816078 4.53173828 30.82226562 C4.56542297 33.89468903 4.61053488 36.96679842 4.65625 40.0390625 C4.6615271 40.99221344 4.6668042 41.94536438 4.67224121 42.92739868 C4.68565552 43.81196747 4.69906982 44.69653625 4.71289062 45.60791016 C4.72018188 46.38558746 4.72747314 47.16326477 4.73498535 47.96450806 C4.88781422 50.31124154 4.88781422 50.31124154 7 53 C10 53.5 10 53.5 13 53 C15.43793568 49.34309648 15.32997583 46.53118649 15.37890625 42.296875 C15.39590073 41.54085999 15.4128952 40.78484497 15.43040466 40.00592041 C15.48350545 37.58736549 15.52376609 35.16882424 15.5625 32.75 C15.60665153 30.34555133 15.65362908 27.94122519 15.70530701 25.53692627 C15.736856 24.04218761 15.76386608 22.54734369 15.78553772 21.0524292 C15.87236849 16.60775674 16.2894883 12.37689526 17 8 C17.99 7.67 18.98 7.34 20 7 C21.99153707 12.00387942 22.2938629 16.28119902 22.30859375 21.57421875 C22.33373013 23.22721743 22.35912846 24.88021214 22.38476562 26.53320312 C22.41360392 29.12051559 22.43764605 31.70775976 22.45629883 34.29516602 C22.47789806 36.80518628 22.51730146 39.31445669 22.55859375 41.82421875 C22.55870956 42.5992424 22.55882538 43.37426605 22.5589447 44.17277527 C22.61853309 48.33613345 22.61853309 48.33613345 24.36743164 52.01879883 C26.0494122 53.23573511 26.0494122 53.23573511 28.5625 52.875 C31.3261611 52.15610832 31.3261611 52.15610832 33 49 C33.21719157 46.37449375 33.3249482 43.84626594 33.34375 41.21875 C33.3583728 40.45002563 33.37299561 39.68130127 33.38806152 38.88928223 C33.43454339 36.42624159 33.46869123 33.96327732 33.5 31.5 C33.76040571 11.36462914 33.76040571 11.36462914 36 2 C36.66 2 37.32 2 38 2 C39.28437413 10.96139905 39.2957248 19.86810504 39.35009766 28.90795898 C39.36668546 30.92597971 39.39401245 32.94394102 39.43212891 34.96166992 C39.48718618 37.90053163 39.50880791 40.83803436 39.5234375 43.77734375 C39.54610687 44.66824203 39.56877625 45.55914032 39.59213257 46.47703552 C39.57020276 53.05136624 37.82277461 57.64778841 34 63 C29.33287263 67.55044919 24.66490981 69.29318025 18.1875 69.4375 C12.25178931 69.32798504 8.36917747 68.04280518 4 64 C0.38492527 59.36528881 -1.12416722 55.87100452 -1.12939453 50.04125977 C-1.13254669 49.03333878 -1.13569885 48.02541779 -1.13894653 46.98695374 C-1.1369223 45.89942307 -1.13489807 44.8118924 -1.1328125 43.69140625 C-1.13376923 42.5731395 -1.13472595 41.45487274 -1.13571167 40.30271912 C-1.13639254 37.93643131 -1.13454472 35.57014164 -1.13037109 33.20385742 C-1.12502659 29.58052369 -1.13031667 25.95731421 -1.13671875 22.33398438 C-1.13605785 20.03645806 -1.13477645 17.73893182 -1.1328125 15.44140625 C-1.13483673 14.35589981 -1.13686096 13.27039337 -1.13894653 12.1519928 C-1.13579437 11.14091965 -1.13264221 10.1298465 -1.12939453 9.08813477 C-1.12859894 8.2000563 -1.12780334 7.31197784 -1.12698364 6.39698792 C-1.00677469 4.1278815 -0.63613866 2.17514115 0 0 Z " fill="#4CA4E6" transform="translate(378,307)"/>
<path d="M0 0 C16.17 0 32.34 0 49 0 C49.495 4.455 49.495 4.455 50 9 C50.94935266 11.35439461 51.93910857 13.69371428 53 16 C53 16.99 53 17.98 53 19 C33.86 19 14.72 19 -5 19 C-3.68 15.04 -2.36 11.08 -1 7 C-0.67 4.69 -0.34 2.38 0 0 Z " fill="#469FE3" transform="translate(198,332)"/>
<path d="M0 0 C4.77996529 0.70524078 5.99252921 2.37403172 9.15234375 5.8046875 C13.31210963 10.20914549 17.34345979 10.78455151 23.1875 11 C28.86897737 10.85116859 33.29349626 10.13869001 37.8125 6.5625 C38.70073351 5.50691815 39.55655098 4.42306427 40.375 3.3125 C42.8125 0.5625 42.8125 0.5625 46.5 0.0625 C49.8125 0.5625 49.8125 0.5625 51.8125 2.5625 C52.44159535 6.05747418 52.44974865 8.46736076 50.6328125 11.58984375 C45.53860654 17.93932055 37.93947677 23.11735882 29.8125 24.5625 C18.8445474 25.62882873 9.43362299 23.5894989 0.75 16.5625 C-2.80076008 13.16762695 -5.00842854 10.38902888 -5.5 5.375 C-5.04247903 1.25731127 -4.02499306 0.71029289 0 0 Z " fill="#103566" transform="translate(199.1875,220.4375)"/>
<path d="M0 0 C1.670625 0.4021875 1.670625 0.4021875 3.375 0.8125 C4.75040188 3.56330375 4.51742117 5.78817444 4.53613281 8.86694336 C4.54574036 10.13843735 4.5553479 11.40993134 4.56524658 12.71995544 C4.57009382 14.11408306 4.57437283 15.50821275 4.578125 16.90234375 C4.58387598 18.32719424 4.58963372 19.7520447 4.59539795 21.17689514 C4.60590699 24.16537843 4.61175049 27.15383482 4.61523438 30.14233398 C4.62072333 33.97372424 4.64475987 37.80475986 4.67320633 41.63603878 C4.69181835 44.5794021 4.69703749 47.52267968 4.69857025 50.46609688 C4.70159987 51.8787181 4.70963884 53.29133771 4.72275543 54.70390129 C4.73978627 56.67875025 4.73609517 58.65374519 4.73144531 60.62866211 C4.73509094 61.75292099 4.73873657 62.87717987 4.74249268 64.0355072 C4.375 66.8125 4.375 66.8125 3.04412842 68.70680237 C1.375 69.8125 1.375 69.8125 -1.6875 69.6875 C-4.625 68.8125 -4.625 68.8125 -6.625 65.8125 C-6.88569641 63.0802002 -6.88569641 63.0802002 -6.8996582 59.73632812 C-6.91395622 57.85923157 -6.91395622 57.85923157 -6.92854309 55.94421387 C-6.92828169 54.57739229 -6.92734476 53.2105707 -6.92578125 51.84375 C-6.92966814 50.44274773 -6.9340028 49.04174663 -6.93876648 47.64074707 C-6.94622689 44.70528339 -6.94593845 41.76993999 -6.94067383 38.83447266 C-6.93487471 35.07145672 -6.95182112 31.30893227 -6.9750185 27.54599762 C-6.98974369 24.65322997 -6.99062932 21.76058108 -6.98750877 18.86778259 C-6.98802245 17.48029099 -6.99326894 16.09279281 -7.00332069 14.70533752 C-7.01564482 12.76648711 -7.00696509 10.82753744 -6.99731445 8.88867188 C-6.99794388 7.78519409 -6.9985733 6.68171631 -6.9992218 5.5447998 C-6.625 2.8125 -6.625 2.8125 -5.32829285 0.92102051 C-3.625 -0.1875 -3.625 -0.1875 0 0 Z " fill="#0E3567" transform="translate(406.625,291.1875)"/>
<path d="M0 0 C2.375 0.875 2.375 0.875 4.375 2.875 C4.62896729 5.56970215 4.62896729 5.56970215 4.63378906 9.03710938 C4.64009338 10.33185181 4.64639771 11.62659424 4.65289307 12.96057129 C4.64931339 14.37996557 4.64521146 15.79935862 4.640625 17.21875 C4.64197169 18.668417 4.64391226 20.11808357 4.64642334 21.56774902 C4.64937442 24.60754695 4.64507756 27.64722743 4.63574219 30.68701172 C4.62434756 34.58794249 4.63090713 38.48859807 4.64288712 42.38951874 C4.65010621 45.38346438 4.64781758 48.37734453 4.64263153 51.37129211 C4.64129517 52.80984021 4.6429423 54.24839421 4.64759064 55.68693542 C4.6526564 57.69558604 4.64356944 59.70425743 4.63378906 61.71289062 C4.63140228 63.4292572 4.63140228 63.4292572 4.62896729 65.18029785 C4.375 67.875 4.375 67.875 2.375 69.875 C-0.5625 70.25 -0.5625 70.25 -3.625 69.875 C-5.89282228 67.63826882 -6.57487292 66.23805683 -7.01268005 63.06713867 C-7.01808304 61.9866626 -7.02348602 60.90618652 -7.02905273 59.79296875 C-7.04173691 58.56489502 -7.05442108 57.33682129 -7.06748962 56.0715332 C-7.06543825 54.73518709 -7.06245028 53.39884213 -7.05859375 52.0625 C-7.06315631 50.68774152 -7.0684621 49.31298531 -7.07447815 47.93823242 C-7.08340436 45.0599642 -7.08099152 42.18197353 -7.07104492 39.30371094 C-7.05954806 35.61800149 -7.07977856 31.93324912 -7.10896206 28.24766541 C-7.12732005 25.40972832 -7.12703266 22.57202087 -7.12132454 19.73403931 C-7.12117131 18.37528133 -7.12721699 17.01650781 -7.13961601 15.6578064 C-7.15451561 13.75760156 -7.1412242 11.85723906 -7.12670898 9.95703125 C-7.12654282 8.87655518 -7.12637665 7.7960791 -7.12620544 6.68286133 C-6.37386821 2.46810539 -4.46504562 -0.21262122 0 0 Z " fill="#0F3768" transform="translate(388.625,291.125)"/>
<path d="M0 0 C3.33925845 1.66962923 3.93249369 5.35361265 5.1875 8.6875 C5.47302734 9.39583984 5.75855469 10.10417969 6.05273438 10.83398438 C8.10052718 16.22999315 8.34839699 19.92082597 5.96888733 25.35462952 C4.9536079 28.12666518 4.73182549 30.17976875 4.69702148 33.11889648 C4.67205849 34.61216713 4.67205849 34.61216713 4.64659119 36.13560486 C4.63817703 37.20331619 4.62976288 38.27102753 4.62109375 39.37109375 C4.60409927 40.48500992 4.5871048 41.59892609 4.56959534 42.74659729 C4.51653679 46.31017368 4.47627577 49.87374193 4.4375 53.4375 C4.37901811 58.1029485 4.31485844 62.76828577 4.24609375 67.43359375 C4.23017181 68.54503754 4.21424988 69.65648132 4.19784546 70.80160522 C4.06927689 78.56479869 3.73873551 86.26766514 3 94 C1.68 94 0.36 94 -1 94 C-1.00364563 93.22040924 -1.00729126 92.44081848 -1.01104736 91.63760376 C-1.04907904 84.25294042 -1.10610158 76.86877316 -1.18390274 69.48443031 C-1.22323648 65.68898538 -1.25549328 61.89376755 -1.27099609 58.09814453 C-1.28625676 54.427935 -1.32086536 50.75835041 -1.36830902 47.08842087 C-1.38302677 45.69561605 -1.39103544 44.30272195 -1.39188385 42.90983963 C-1.40123019 35.25213289 -1.78164931 28.9257509 -5.15519714 21.9699707 C-7.31003737 16.94516275 -4.20149682 11.4194529 -2.4375 6.625 C-2.20353516 5.98433594 -1.96957031 5.34367188 -1.72851562 4.68359375 C-1.15700381 3.1206839 -0.57915771 1.56009273 0 0 Z " fill="#509FDC" transform="translate(396,144)"/>
<path d="M0 0 C76.89 0 153.78 0 233 0 C233 3.3 233 6.6 233 10 C232.34 10.33 231.68 10.66 231 11 C231 8.03 231 5.06 231 2 C155.1 2 79.2 2 1 2 C1 3.98 1 5.96 1 8 C0.67 8 0.34 8 0 8 C0 5.36 0 2.72 0 0 Z " fill="#4398D8" transform="translate(106,293)"/>
<path d="M0 0 C2.01345956 -0.0051461 4.02691461 -0.01243257 6.0403595 -0.02168274 C11.47840203 -0.04011558 16.915951 -0.02730988 22.35397267 -0.00759244 C28.06097384 0.00886028 33.76794538 -0.00002792 39.47496033 -0.00511169 C49.05532667 -0.00962489 58.63549727 0.00619014 68.21582031 0.03417969 C79.27337381 0.06623708 90.33057457 0.06620966 101.38815314 0.04896492 C112.05088643 0.03307226 122.71349109 0.03985045 133.3762188 0.05690193 C137.90267828 0.06375328 142.42903406 0.06275971 146.95549202 0.05535698 C152.29006307 0.04766601 157.62423518 0.059912 162.95873833 0.08720589 C164.91014803 0.09406099 166.86159519 0.09421875 168.81300354 0.08699036 C193.05504214 0.00757543 193.05504214 0.00757543 201.58959961 8.38110352 C202.55446289 9.30149414 202.55446289 9.30149414 203.53881836 10.24047852 C204.21364258 10.92883789 204.21364258 10.92883789 204.90209961 11.63110352 C204.57209961 12.29110352 204.24209961 12.95110352 203.90209961 13.63110352 C202.97397461 12.72360352 202.04584961 11.81610352 201.08959961 10.88110352 C190.79904031 2.27839555 178.67586973 3.05576047 166.00952148 3.11352539 C164.00606275 3.10809786 162.00260802 3.10097167 159.99916077 3.09228516 C154.58385656 3.07412401 149.16885881 3.08108954 143.75354958 3.0938015 C138.0718977 3.10396659 132.39027113 3.0945261 126.70861816 3.08825684 C117.16938594 3.08099064 107.63027781 3.09054117 98.09106445 3.10961914 C87.08068696 3.13138582 76.07060581 3.12433373 65.0602355 3.10231352 C55.58728302 3.08413025 46.11441947 3.08161552 36.64145517 3.0920682 C30.99227959 3.09828702 25.34324305 3.09918316 19.69407654 3.08592224 C14.381695 3.07432176 9.06969354 3.0824661 3.75735283 3.10549927 C1.81400113 3.11076396 -0.12938286 3.10931121 -2.07272148 3.10044861 C-12.18064809 3.05862028 -20.78721338 3.18747551 -30.09790039 7.63110352 C-31.08790039 7.96110352 -32.07790039 8.29110352 -33.09790039 8.63110352 C-32.09790039 5.63110352 -32.09790039 5.63110352 -30.08181095 4.266572 C-20.15484891 -0.299796 -10.74560135 -0.07007787 0 0 Z " fill="#234772" transform="translate(139.097900390625,118.368896484375)"/>
<path d="M0 0 C3.2132442 2.54381833 5.68983837 4.78455977 6.2734375 8.953125 C6.46329043 13.24672199 6.4342668 16.09582964 3.625 19.5 C0.16017221 22.79983599 -2.029039 23.54965257 -6.890625 23.4609375 C-10.29121441 22.71784574 -11.89399188 20.93963387 -13.9296875 18.203125 C-15.88457327 14.17919954 -15.88008275 10.33440756 -15 6 C-11.22740454 -0.16190591 -6.90339522 -1.09691254 0 0 Z " fill="#0F3466" transform="translate(274,183)"/>
<path d="M0 0 C3.1293173 0.74342897 4.94179824 2.18840477 7.12109375 4.50390625 C8.96315874 8.18803624 8.48285705 12.47373611 8.12109375 16.50390625 C6.50836808 20.19013636 5.49076875 21.25745625 2.12109375 23.50390625 C-4.78149074 24.1718983 -4.78149074 24.1718983 -8.75390625 21.75390625 C-12.04662274 18.26750056 -12.74669628 16.51200726 -13.37890625 11.69140625 C-13.24247996 7.41404065 -11.73676245 4.84530592 -8.79296875 1.796875 C-5.86723372 -0.17948887 -3.46137136 -0.27434141 0 0 Z " fill="#103567" transform="translate(177.87890625,182.49609375)"/>
<path d="M0 0 C0.66 0 1.32 0 2 0 C3.85062306 3.9475058 4.25683666 7.09355042 4.265625 11.4375 C4.26820313 12.66210938 4.27078125 13.88671875 4.2734375 15.1484375 C4.26570313 16.41945313 4.25796875 17.69046875 4.25 19 C4.25773437 20.27101563 4.26546875 21.54203125 4.2734375 22.8515625 C4.27085937 24.07617188 4.26828125 25.30078125 4.265625 26.5625 C4.26336914 27.67753906 4.26111328 28.79257812 4.25878906 29.94140625 C3.9988401 33.01370875 3.30177698 35.22322051 2 38 C1.34 38 0.68 38 0 38 C-1.1323081 34.37481498 -1.12928795 30.96984125 -1.1328125 27.1875 C-1.13376923 26.53676514 -1.13472595 25.88603027 -1.13571167 25.21557617 C-1.13639018 23.84391177 -1.13455887 22.47224411 -1.13037109 21.10058594 C-1.12501812 19.00708774 -1.13032716 16.91380407 -1.13671875 14.8203125 C-1.13605791 13.48437453 -1.13477663 12.14843669 -1.1328125 10.8125 C-1.13168457 9.60207031 -1.13055664 8.39164062 -1.12939453 7.14453125 C-1.02291165 4.55679636 -0.76686877 2.45519851 0 0 Z " fill="#FDFEFE" transform="translate(378,307)"/>
<path d="M0 0 C0.66 0.33 1.32 0.66 2 1 C2 18.49 2 35.98 2 54 C1.01 53.67 0.02 53.34 -1 53 C-1.02531773 45.93417118 -1.04285324 38.86835402 -1.05493164 31.80249023 C-1.05996598 29.39786339 -1.06679386 26.99323962 -1.07543945 24.58862305 C-1.08754429 21.13589725 -1.09323726 17.68321186 -1.09765625 14.23046875 C-1.10281754 13.15226364 -1.10797882 12.07405853 -1.11329651 10.96318054 C-1.11337204 9.96236954 -1.11344757 8.96155853 -1.11352539 7.93041992 C-1.115746 7.04883713 -1.11796661 6.16725433 -1.12025452 5.25895691 C-1 3 -1 3 0 0 Z " fill="#F4FBFE" transform="translate(397,183)"/>
<path d="M0 0 C0.66 0 1.32 0 2 0 C3.96720901 4.94924805 4.30588371 9.14055962 4.25 14.375 C4.25773437 15.09171875 4.26546875 15.8084375 4.2734375 16.546875 C4.25498104 21.65931363 3.39842509 26.08331496 2 31 C1.01 31 0.02 31 -1 31 C-2.60834632 21.1488788 -2.76086907 10.83358575 -1 1 C-0.67 0.67 -0.34 0.34 0 0 Z " fill="#E2F1FC" transform="translate(396,314)"/>
<path d="M0 0 C0.66 0 1.32 0 2 0 C3.13731456 7.25715006 3.14858611 14.41471985 3.125 21.75 C3.12886719 22.96816406 3.13273437 24.18632812 3.13671875 25.44140625 C3.13542969 26.61058594 3.13414062 27.77976562 3.1328125 28.984375 C3.13168457 30.04366211 3.13055664 31.10294922 3.12939453 32.19433594 C3.01675858 34.63662342 2.70521431 36.67076186 2 39 C1.34 39 0.68 39 0 39 C-1.1623398 35.31098511 -1.12934505 31.81861287 -1.1328125 27.96875 C-1.13376923 27.29581909 -1.13472595 26.62288818 -1.13571167 25.92956543 C-1.13639032 24.51082261 -1.13455806 23.09207664 -1.13037109 21.67333984 C-1.12501833 19.50741572 -1.13032671 17.34169896 -1.13671875 15.17578125 C-1.13605791 13.79427038 -1.13477663 12.41275963 -1.1328125 11.03125 C-1.13168457 9.77892578 -1.13055664 8.52660156 -1.12939453 7.23632812 C-1.02435958 4.60926534 -0.78415855 2.48874947 0 0 Z " fill="#EAF3FA" transform="translate(414,309)"/>
<path d="M0 0 C0.495 1.485 0.495 1.485 1 3 C-5.41098956 10.97502324 -11.28486715 15.76162238 -21 19 C-23.00904644 19.0890016 -25.02096968 19.11760452 -27.03198242 19.11352539 C-28.27304245 19.11344986 -29.51410248 19.11337433 -30.79277039 19.11329651 C-32.14700358 19.10818991 -33.50123637 19.10297391 -34.85546875 19.09765625 C-36.24123585 19.09579083 -37.62700361 19.09436751 -39.01277161 19.09336853 C-42.6574791 19.0895531 -46.30214665 19.07973113 -49.94683838 19.06866455 C-53.66702738 19.0584295 -57.38722285 19.05386642 -61.10742188 19.04882812 C-68.40496611 19.03810798 -75.70247746 19.02104325 -83 19 C-83 18.67 -83 18.34 -83 18 C-81.92457443 17.99120064 -81.92457443 17.99120064 -80.8274231 17.98222351 C-74.03148024 17.92403366 -67.23581153 17.85180913 -60.44018745 17.76428509 C-56.94745367 17.71978306 -53.45483112 17.68048442 -49.96191406 17.65356445 C-45.93525735 17.62229304 -41.90920466 17.56751435 -37.8828125 17.51171875 C-36.64387238 17.50532883 -35.40493225 17.4989389 -34.12844849 17.49235535 C-23.25635524 17.31005159 -14.05303463 15.72235447 -6 8 C-4.19203897 5.43389334 -4.19203897 5.43389334 -3 3 C-1.3125 1.1875 -1.3125 1.1875 0 0 Z " fill="#012C63" transform="translate(348,314)"/>
<path d="M0 0 C0.66 0 1.32 0 2 0 C3.86451971 3.96881629 4.2568867 7.13928459 4.265625 11.5078125 C4.26820313 12.74144531 4.27078125 13.97507812 4.2734375 15.24609375 C4.26570313 16.52613281 4.25796875 17.80617188 4.25 19.125 C4.25773437 20.41277344 4.26546875 21.70054687 4.2734375 23.02734375 C4.27085937 24.25839844 4.26828125 25.48945313 4.265625 26.7578125 C4.26336914 27.8833252 4.26111328 29.00883789 4.25878906 30.16845703 C4 33 4 33 2 36 C2 26.76 2 17.52 2 8 C1.67 8 1.34 8 1 8 C0.67 16.58 0.34 25.16 0 34 C-0.33 34 -0.66 34 -1 34 C-1.02476851 29.80078534 -1.04289246 25.60160971 -1.05493164 21.40234375 C-1.05995206 19.97460184 -1.06676972 18.54686504 -1.07543945 17.11914062 C-1.08760553 15.06378921 -1.09325128 13.00850593 -1.09765625 10.953125 C-1.10289307 9.71723633 -1.10812988 8.48134766 -1.11352539 7.20800781 C-1.02071737 4.5854329 -0.78356673 2.48355406 0 0 Z " fill="#D7F0FD" transform="translate(378,307)"/>
<path d="M0 0 C0.33 0 0.66 0 1 0 C1.33 14.52 1.66 29.04 2 44 C2.33 44 2.66 44 3 44 C3 46.31 3 48.62 3 51 C2.01 50.67 1.02 50.34 0 50 C0 33.5 0 17 0 0 Z " fill="#E4F0FA" transform="translate(396,186)"/>
<path d="M0 0 C9.51461542 -0.62390921 17.39120412 1.39474582 24.6875 7.75 C25.80679067 8.81770012 26.9171142 9.89539442 28 11 C27.67 11.66 27.34 12.32 27 13 C26.071875 12.0925 25.14375 11.185 24.1875 10.25 C18.56400787 5.43474257 11.68307469 3.14910486 4.375 2.375 C2.704375 2.189375 2.704375 2.189375 1 2 C0.67 1.34 0.34 0.68 0 0 Z " fill="#1B406E" transform="translate(316,119)"/>
<path d="M0 0 C0.66 0 1.32 0 2 0 C2.03738281 0.59167969 2.07476562 1.18335938 2.11328125 1.79296875 C2.52169369 6.70192606 3.21816624 9.82724937 6 14 C5.67 14.66 5.34 15.32 5 16 C2.23777157 13.61443908 1.01341183 11.50796403 0 8 C-0.15512216 5.30787998 -0.09156216 2.70108374 0 0 Z " fill="#022F5E" transform="translate(363,251)"/>
<path d="M0 0 C-1.45659799 2.91319598 -3.3461589 3.01711259 -6.375 4.0625 C-7.35210937 4.40410156 -8.32921875 4.74570313 -9.3359375 5.09765625 C-11.22233089 5.73659595 -13.11054199 6.37018066 -15 7 C-14 4 -14 4 -12.109375 2.83203125 C-4.27810031 -0.55201294 -4.27810031 -0.55201294 0 0 Z " fill="#244974" transform="translate(121,120)"/>
<path d="M0 0 C0.99 0.33 1.98 0.66 3 1 C1.68 4.63 0.36 8.26 -1 12 C-1.66 12 -2.32 12 -3 12 C-2.69106068 10.3743193 -2.3777305 8.74947252 -2.0625 7.125 C-1.88847656 6.22007812 -1.71445313 5.31515625 -1.53515625 4.3828125 C-1 2 -1 2 0 0 Z " fill="#193A67" transform="translate(145,361)"/>
<path d="M0 0 C0.66 1.32 1.32 2.64 2 4 C0.625 7.75 0.625 7.75 -1 11 C-1.66 11 -2.32 11 -3 11 C-2.01 7.37 -1.02 3.74 0 0 Z " fill="#173E6B" transform="translate(383,142)"/>
<path d="M0 0 C0 2.31 0 4.62 0 7 C-0.99 6.67 -1.98 6.34 -3 6 C-3 4.35 -3 2.7 -3 1 C-1 0 -1 0 0 0 Z " fill="#ADD8F7" transform="translate(399,230)"/>
</svg>
